<svg id="Layer_3" enable-background="new 0 0 64 64" height="512" viewBox="0 0 64 64" width="512" xmlns="http://www.w3.org/2000/svg"><path d="m62 28h-1.276c-.175-1.267-.432-2.518-.769-3.739l.87-.371c.244-.104.437-.3.536-.546s.097-.521-.008-.765l-2.216-5.205c-.104-.244-.301-.437-.546-.536-.246-.099-.521-.096-.766.008l-.876.373c-.583-.982-1.225-1.931-1.918-2.836l.675-.675c.391-.391.391-1.023 0-1.414l-4-4c-.391-.391-1.023-.391-1.414 0l-.675.674c-.905-.693-1.854-1.335-2.836-1.917l.372-.876c.217-.508-.021-1.095-.528-1.312l-5.205-2.216c-.244-.104-.52-.107-.766-.008s-.442.292-.546.537l-.37.87c-1.22-.338-2.471-.594-3.738-.769v-1.277c0-.552-.447-1-1-1h-6c-.553 0-1 .448-1 1v1.277c-1.267.175-2.518.432-3.739.768l-.37-.87c-.104-.244-.3-.437-.546-.537-.247-.1-.522-.096-.766.008l-5.205 2.216c-.508.216-.745.803-.528 1.312l.372.876c-.981.583-1.931 1.224-2.836 1.917l-.675-.674c-.391-.391-1.023-.391-1.414 0l-4 4c-.391.391-.391 1.023 0 1.414l.675.675c-.693.906-1.335 1.854-1.918 2.836l-.876-.373c-.243-.104-.519-.107-.766-.008-.245.099-.442.292-.546.536l-2.216 5.205c-.104.244-.106.519-.008.765.1.246.292.443.536.546l.87.371c-.336 1.222-.593 2.473-.768 3.74h-1.276c-.553 0-1 .448-1 1v6c0 .552.447 1 1 1h1.276c.175 1.267.432 2.518.769 3.739l-.87.371c-.244.104-.437.3-.536.546s-.097.521.008.765l2.216 5.205c.217.508.805.745 1.312.528l.876-.373c.583.981 1.225 1.931 1.918 2.836l-.675.675c-.391.391-.391 1.023 0 1.414l4 4c.391.391 1.023.391 1.414 0l.675-.674c.905.693 1.854 1.335 2.836 1.917l-.372.876c-.217.508.021 1.095.528 1.312l5.205 2.216c.243.104.519.107.766.008.246-.1.442-.292.546-.537l.37-.87c1.222.336 2.473.593 3.739.768v1.278c0 .552.447 1 1 1h6c.553 0 1-.448 1-1v-1.277c1.267-.175 2.518-.432 3.739-.768l.37.87c.104.244.3.437.546.537.246.099.521.096.766-.008l5.205-2.216c.508-.216.745-.803.528-1.312l-.372-.876c.981-.583 1.931-1.224 2.836-1.917l.675.674c.391.391 1.023.391 1.414 0l4-4c.391-.391.391-1.023 0-1.414l-.675-.675c.693-.906 1.335-1.855 1.918-2.836l.876.373c.507.216 1.095-.02 1.312-.528l2.216-5.205c.104-.244.106-.519.008-.765-.1-.246-.292-.443-.536-.546l-.87-.371c.337-1.221.594-2.473.769-3.739h1.274c.553 0 1-.448 1-1v-6c0-.553-.447-1.001-1-1.001zm-1 6h-1.162c-.512 0-.94.386-.994.895-.186 1.745-.54 3.468-1.054 5.12-.152.49.091 1.016.563 1.217l.769.327-1.433 3.365-.773-.329c-.468-.201-1.02-.014-1.267.437-.785 1.421-1.703 2.778-2.728 4.034-.325.397-.296.977.067 1.339l.598.595-2.586 2.586-.597-.597c-.364-.363-.941-.392-1.34-.067-1.255 1.025-2.612 1.943-4.033 2.727-.449.248-.638.795-.437 1.267l.329.773-3.365 1.432-.326-.767c-.2-.473-.729-.715-1.216-.564-1.653.513-3.376.867-5.122 1.053-.507.054-.893.484-.893.995v1.162h-4v-1.162c0-.511-.386-.94-.894-.994-1.746-.186-3.469-.541-5.122-1.053-.483-.151-1.016.091-1.216.564l-.326.767-3.365-1.432.329-.773c.201-.472.013-1.019-.437-1.267-1.421-.784-2.778-1.702-4.033-2.727-.399-.326-.977-.296-1.34.067l-.596.596-2.586-2.586.597-.597c.363-.363.393-.942.067-1.339-1.024-1.256-1.942-2.613-2.728-4.034-.248-.45-.801-.638-1.267-.437l-.773.329-1.433-3.365.769-.327c.473-.201.716-.727.563-1.217-.514-1.652-.868-3.375-1.054-5.12-.052-.507-.481-.893-.993-.893h-1.162v-4h1.162c.512 0 .94-.386.994-.895.186-1.745.54-3.468 1.054-5.12.152-.49-.091-1.016-.563-1.217l-.769-.327 1.433-3.365.773.329c.466.199 1.019.013 1.267-.437.785-1.421 1.703-2.778 2.728-4.034.325-.397.296-.977-.067-1.339l-.598-.595 2.586-2.586.597.597c.363.362.94.391 1.34.067 1.255-1.025 2.612-1.943 4.033-2.727.449-.248.638-.795.437-1.267l-.329-.773 3.365-1.432.326.767c.201.474.732.718 1.216.564 1.653-.513 3.376-.867 5.122-1.053.507-.054.893-.484.893-.995v-1.162h4v1.162c0 .511.386.94.894.994 1.746.186 3.469.541 5.122 1.053.485.154 1.016-.091 1.216-.564l.326-.767 3.365 1.432-.329.773c-.201.472-.013 1.019.437 1.267 1.421.784 2.778 1.702 4.033 2.727.398.325.976.295 1.34-.067l.596-.596 2.586 2.586-.597.597c-.363.363-.393.942-.067 1.339 1.024 1.256 1.942 2.613 2.728 4.034.247.45.799.636 1.267.437l.773-.329 1.433 3.365-.769.327c-.473.201-.716.727-.563 1.217.514 1.652.868 3.375 1.054 5.12.052.507.481.893.993.893h1.162z"/><path d="m26 32c0 3.309 2.691 6 6 6s6-2.691 6-6-2.691-6-6-6-6 2.691-6 6zm6-4c2.206 0 4 1.794 4 4s-1.794 4-4 4-4-1.794-4-4 1.794-4 4-4z"/><path d="m38.323 9.88c-.526-.151-1.07.147-1.23.667l-3.826 12.435c-.08.262-.05.545.084.784s.36.412.626.479c3.546.901 6.023 4.09 6.023 7.755 0 1.647-.496 3.229-1.437 4.575-.176.252-.226.571-.136.865s.311.53.597.641l12.282 4.724c.118.045.239.067.359.067.368 0 .719-.204.894-.551 1.62-3.22 2.441-6.693 2.441-10.321 0-10.222-6.857-19.318-16.677-22.12zm12.839 30.726-10.303-3.962c.749-1.426 1.141-3.009 1.141-4.644 0-4.227-2.637-7.947-6.528-9.382l3.238-10.524c8.462 2.853 14.29 10.901 14.29 19.906 0 3.009-.618 5.9-1.838 8.606z"/><path d="m25.572 37.44c.09-.294.04-.613-.136-.865-.94-1.346-1.436-2.928-1.436-4.575 0-3.665 2.477-6.854 6.023-7.754.266-.067.492-.241.626-.479s.164-.522.084-.784l-3.826-12.435c-.161-.52-.705-.819-1.23-.667-9.82 2.801-16.677 11.897-16.677 22.119 0 3.628.821 7.101 2.44 10.321.175.347.525.551.894.551.12 0 .241-.021.359-.067l12.282-4.724c.287-.111.507-.347.597-.641zm-12.734 3.166c-1.22-2.706-1.838-5.597-1.838-8.606 0-9.005 5.828-17.053 14.29-19.906l3.238 10.524c-3.891 1.435-6.528 5.155-6.528 9.382 0 1.635.392 3.218 1.141 4.644z"/><path d="m38.081 39.025c-.11-.287-.347-.507-.641-.597-.296-.09-.613-.041-.865.136-2.691 1.879-6.459 1.879-9.15 0-.252-.176-.568-.227-.865-.136-.294.09-.53.31-.641.597l-4.725 12.282c-.185.479.025 1.021.484 1.252 3.22 1.62 6.693 2.441 10.322 2.441s7.102-.821 10.321-2.44c.459-.231.669-.773.484-1.252zm-6.081 13.975c-3.01 0-5.9-.618-8.606-1.838l3.963-10.303c2.852 1.499 6.436 1.499 9.287 0l3.963 10.303c-2.707 1.22-5.597 1.838-8.607 1.838z"/><path d="m17 44c-1.654 0-3 1.346-3 3s1.346 3 3 3 3-1.346 3-3-1.346-3-3-3zm0 4c-.552 0-1-.449-1-1s.448-1 1-1 1 .449 1 1-.448 1-1 1z"/><path d="m47 44c-1.654 0-3 1.346-3 3s1.346 3 3 3 3-1.346 3-3-1.346-3-3-3zm0 4c-.552 0-1-.449-1-1s.448-1 1-1 1 .449 1 1-.448 1-1 1z"/><path d="m32 15c1.654 0 3-1.346 3-3s-1.346-3-3-3-3 1.346-3 3 1.346 3 3 3zm0-4c.552 0 1 .449 1 1s-.448 1-1 1-1-.449-1-1 .448-1 1-1z"/></svg>